PathFileType	4	(X/Y/Z)	E:\Qualisys_Data\Carbon_Farble_Plate\Data\Amateur_Runner\S2\T1\S2T1V12_c3d.trc
DataRate	CameraRate	NumFrames	NumMarkers	Units	OrigDataRate	OrigDataStartFrame	OrigNumFrames
200.000000	200.000000	4	39	mm	200.000000	80	320
Frame#	Time	LSHO			RSHO			LICST			RICST			LASIS			LHEEL			RASIS			LTROC			RTROC			SACR			LTH1			LSK4			LTH2			LTH3			RHM5			LSK2			LTH4			RTH1			LTOE			RTH2			RTH3			RTH4			LLEP			RLEP			LSK1			LSK3			RSK1			LHM5			RSK2			LFT1			RSK3			RSK4			LLME			RLME			RTOE			RHEEL			RFT1			RFT2			LFT2			
		X1	Y1	Z1	X2	Y2	Z2	X3	Y3	Z3	X4	Y4	Z4	X5	Y5	Z5	X6	Y6	Z6	X7	Y7	Z7	X8	Y8	Z8	X9	Y9	Z9	X10	Y10	Z10	X11	Y11	Z11	X12	Y12	Z12	X13	Y13	Z13	X14	Y14	Z14	X15	Y15	Z15	X16	Y16	Z16	X17	Y17	Z17	X18	Y18	Z18	X19	Y19	Z19	X20	Y20	Z20	X21	Y21	Z21	X22	Y22	Z22	X23	Y23	Z23	X24	Y24	Z24	X25	Y25	Z25	X26	Y26	Z26	X27	Y27	Z27	X28	Y28	Z28	X29	Y29	Z29	X30	Y30	Z30	X31	Y31	Z31	X32	Y32	Z32	X33	Y33	Z33	X34	Y34	Z34	X35	Y35	Z35	X36	Y36	Z36	X37	Y37	Z37	X38	Y38	Z38	X39	Y39	Z39	

81	0.4	-1061.987670898438	1509.11669921875	-441.6341247558594	-966.6026000976562	1489.800048828125	-150.9344787597656	-1055.491943359375	1043.009521484375	-432.9916381835938	-1004.993286132812	1033.510498046875	-139.2553558349609	-995.7473754882812	994.707275390625	-419.390380859375	-939.7473754882812	105.6749572753906	-312.6036682128906	-956.2136840820312	981.6021118164062	-166.7231597900391	-1117.931396484375	916.2984008789062	-429.7258911132812	-1110.521362304688	952.7445068359376	-114.6806411743164	-1127.1796875	1081.102905273438	-267.9675903320312	-938.3155517578124	694.28369140625	-445.9530334472656	-965.5405883789062	307.3310546875	-404.9872741699219	-1018.762329101562	672.1837768554688	-437.317138671875	-909.7462158203124	597.7041015625	-420.6708068847656	-1526.343139648438	158.3413238525391	-140.3803405761719	-974.967041015625	404.4505004882812	-420.7889404296875	-991.5117797851562	577.7573852539062	-412.4998168945312	-1067.166015625	663.7523803710938	-130.2873229980469	-709.5885009765625	168.9808502197266	-375.1502990722656	-1139.180908203125	691.3919677734375	-120.9211044311523	-1104.345947265625	569.7105712890625	-142.9400939941406	-1178.512451171875	601.8621826171875	-138.3435516357422	-939.7142333984376	542.348388671875	-414.1414489746094	-1171.760620117188	557.9430541992188	-134.6076202392578	-896.7293090820312	412.4172668457031	-421.5543212890625	-886.2752075195312	313.1421203613281	-410.0738525390625	-1241.458374023438	453.6021423339844	-126.1139984130859	-762.5775756835938	127.6880416870117	-427.0655212402344	-1290.94677734375	515.9385375976562	-118.6417541503906	-911.5469360351562	88.61358642578125	-285.9711608886719	-1321.378173828125	389.2111511230469	-129.4502716064453	-1368.244750976562	453.3189697265625	-127.7065353393555	-893.9248046875	130.4596099853516	-376.1445617675781	-1494.143188476562	302.9520263671875	-151.1857604980469	-1485.9287109375	112.6746215820312	-200.8488922119141	-1512.253173828125	357.3763122558594	-204.3608551025391	-1530.333618164062	340.0654296875	-242.4835815429688	-1542.243896484375	350.7482299804688	-185.5841522216797	-931.349365234375	78.44780731201172	-336.1695861816406
82	0.405	-1046.026245117188	1506.238403320312	-442.53076171875	-951.006591796875	1488.129272460938	-151.6224975585938	-1039.4443359375	1040.337768554688	-432.8380432128906	-989.6493530273438	1031.51904296875	-138.8946075439453	-979.5659790039062	992.1278686523438	-419.2971801757812	-921.3491821289062	102.9996109008789	-308.5426025390625	-940.2374877929688	980.22216796875	-166.4735260009766	-1102.5859375	913.4660034179688	-429.1270751953125	-1094.234252929688	950.0867919921876	-114.4461441040039	-1111.543090820312	1078.764770507812	-268.5567932128906	-923.1420288085938	690.4097900390625	-447.8547973632812	-947.5350952148438	304.8468627929688	-403.7640686035156	-1004.325988769531	669.014404296875	-437.6048278808594	-895.8034057617188	593.7472534179688	-422.0384216308594	-1514.759643554688	164.3665924072266	-139.3268127441406	-957.803466796875	402.1722717285156	-419.8055114746094	-977.223876953125	574.3695068359375	-412.7562255859375	-1047.894897460938	661.1448974609375	-129.7876586914062	-691.5706787109375	169.6967315673828	-373.0288391113281	-1120.1650390625	688.200439453125	-120.5452880859375	-1084.020629882812	567.0748291015625	-142.6065826416016	-1158.669677734375	598.3265991210938	-137.4929504394531	-924.5930786132812	539.5015258789062	-413.496826171875	-1151.563354492188	554.36572265625	-134.0602569580078	-879.7635498046875	410.4780578613281	-419.9603271484375	-868.81103515625	311.5353393554688	-408.2297058105469	-1223.84326171875	452.0289916992188	-125.2907333374023	-743.939208984375	127.9898834228516	-425.0445861816406	-1271.90087890625	516.0380249023438	-118.8094863891602	-892.371337890625	86.78179931640625	-283.6556396484375	-1305.65380859375	390.6732177734375	-129.019775390625	-1350.435791015625	455.6119079589844	-127.7746353149414	-875.4076538085938	128.7631225585938	-374.5135498046875	-1480.776977539062	308.4704895019531	-151.4834289550781	-1474.287231445312	117.8751449584961	-198.945556640625	-1498.183837890625	363.0350341796875	-205.7086181640625	-1516.117797851562	346.0578002929688	-243.1350860595703	-1528.119873046875	356.3934326171875	-186.5411834716797	-912.230712890625	76.25465393066406	-334.1511840820312
83	0.41	-1029.988403320312	1503.640258789062	-443.5962829589844	-934.9078979492188	1485.939086914062	-152.5058288574219	-1023.386596679688	1037.873046875	-432.7998657226562	-974.4535522460938	1029.798461914062	-138.8002624511719	-963.8629760742188	989.7698974609376	-419.2608032226562	-904.0281372070312	100.6093902587891	-306.3749694824219	-924.5582885742188	978.5035400390624	-166.1106109619141	-1086.553100585938	910.6798095703124	-429.0843200683594	-1078.483520507812	946.9717407226562	-114.3367156982422	-1095.889038085938	1076.466186523438	-268.4042053222656	-907.8500366210938	686.1083984375	-449.7217712402344	-930.1972045898438	302.4003601074219	-402.689453125	-989.3008422851562	665.4325561523438	-438.5807495117188	-880.3474731445312	589.6650390625	-423.4621276855469	-1501.373413085938	170.8045349121094	-138.4900207519531	-940.8975219726562	399.8903198242188	-418.8865356445312	-962.2572631835938	570.839599609375	-412.9041748046875	-1028.746948242188	658.47998046875	-129.6574859619141	-674.646728515625	169.0942840576172	-370.4795837402344	-1101.222045898438	684.671142578125	-120.2157897949219	-1063.911743164062	563.790771484375	-141.4185638427734	-1138.808715820312	594.0971069335938	-137.1464996337891	-908.86572265625	536.8561401367188	-412.8124084472656	-1131.564819335938	550.7847290039062	-133.5417022705078	-862.7974243164062	408.3145446777344	-418.4575805664062	-851.3336791992188	309.7288818359375	-406.1292419433594	-1205.755615234375	450.2818908691406	-124.6309127807617	-726.6740112304688	127.1928176879883	-422.5407104492188	-1251.932739257812	515.6441040039062	-118.1029968261719	-874.8834228515625	84.42063903808594	-281.8291320800781	-1289.390869140625	390.9197998046875	-128.6808471679688	-1332.233520507812	457.4815673828125	-127.5040130615234	-857.8145751953125	127.1156845092773	-372.4622192382812	-1465.528564453125	313.8352966308594	-151.8357543945312	-1463.242431640625	122.8560104370117	-197.1427154541016	-1480.146850585938	368.0208129882812	-204.674072265625	-1500.392333984375	350.7381896972656	-243.9329528808594	-1512.662719726562	363.5194091796875	-186.3750915527344	-894.3516235351562	74.07496643066406	-332.1195678710938
84	0.415	-1013.954772949219	1500.295654296875	-444.5289306640625	-919.0176391601562	1483.770263671875	-153.2633819580078	-1007.765075683594	1035.152587890625	-432.8623352050781	-959.2183837890624	1027.314819335938	-138.2966156005859	-947.785888671875	987.2418212890624	-419.0389404296875	-887.5457763671875	98.05611419677734	-305.4358215332031	-908.6620483398438	976.6573486328124	-165.8119049072266	-1071.303955078125	907.9243774414062	-428.5699157714844	-1062.399536132812	943.5070190429688	-114.6189804077148	-1080.265014648438	1073.614990234375	-267.9744873046875	-891.9942626953125	682.4285888671875	-451.040283203125	-913.390869140625	300.1208801269531	-401.5962524414062	-973.5615234375	661.1484985351562	-440.1354064941406	-864.3004760742188	586.2894897460938	-424.6761474609375	-1488.603881835938	177.3804931640625	-137.1573944091797	-924.1351928710938	397.0087890625	-418.0062255859375	-946.4133911132812	567.3787841796875	-413.299560546875	-1009.909118652344	655.615478515625	-129.5208435058594	-658.4398193359375	168.1665344238281	-368.3352966308594	-1082.66162109375	680.9442749023438	-120.4899520874023	-1043.542236328125	560.7657470703125	-140.166259765625	-1118.848022460938	590.2501220703125	-136.8350067138672	-892.793212890625	534.3495483398438	-412.2911376953125	-1111.059448242188	546.794921875	-132.7069091796875	-845.7216796875	406.0134887695312	-417.1184997558594	-834.1940307617188	307.2788391113281	-404.3355712890625	-1187.06591796875	448.5308532714844	-124.1690063476562	-710.3033447265625	125.7407989501953	-419.8873901367188	-1231.317016601562	515.02734375	-117.6896209716797	-858.6915893554688	81.7999267578125	-279.6465759277344	-1272.369018554688	391.4214782714844	-128.5855560302734	-1313.525024414062	459.0343322753906	-127.9390258789062	-841.7709350585938	124.9704055786133	-370.3345336914062	-1450.635986328125	319.4673461914062	-151.8394317626953	-1450.827880859375	128.2106170654297	-195.3184967041016	-1466.168212890625	373.2437133789062	-207.7376556396484	-1484.760375976562	355.8039855957031	-244.97802734375	-1496.819702148438	368.3191223144531	-188.0277404785156	-878.3939208984375	71.67268371582031	-329.8972473144531
